Release Title:
Brothers 2009
Release Date:  
12/04/2009
plot:
A young man comforts his older brother's wife and children after he goes missing in Afghanistan. Based on Susanne Bier's film, "Brothers".


Genre:  
Drama | Thriller | War 
Generalinfo:
Format                           : AVI
Format/Info                      : Audio Video Interleave
File size                        : 845 MiB
Duration                         : 1h 50mn
Overall bit rate                 : 1 100 Kbps
Writing application              : Lavf52.31.0

Video
Format                           : xvid
Codec ID                         : xvid
Duration                         : 1h 50mn
Bit rate                         : 958 Kbps
Width                            : 640 pixels
Height                           : 480 pixels
Display aspect ratio             : 4:3
Frame rate                       : 29.970 fps
Resolution                       : 24 bits
Bits/(Pixel*Frame)               : 0.104
Stream size                      : 620 MiB (87%)

Audio
ID                               : 1
Format                           : MPEG Audio
Format version                   : Version 1
Format profile                   : Layer 3
Codec ID                         : 55
Codec ID/Hint                    : MP3
Duration                         : 1h 50mn
Bit rate mode                    : Constant
Bit rate                         : 128 Kbps
Channel(s)                       : 2 channels
Sampling rate                    : 44.1 KHz
Resolution                       : 16 bits
Stream size                      : 82.8 MiB (12%)
Alignment                        : Aligned on interleaves
Interleave, duration             : 26 ms (0.78 video frame)
Interleave, preload duration     : 182 ms
Writing library                  : LAME3.98.2

GREETZ:
MR REP ,BLaZe,Titan,kloWn,iNNERCORE,ResourceRG,Lynks,Tex,Kitty,
TQW,SEAN,NNC,Stuffie and  PrizM for cams,Darkside,Spin,paulx1 Stash
